# xmcd
#
# Track frame offsets:
#	150
#	18398
#	39787
#	59663
#	79104
#	97012
#	115969
#	131211
#	153481
#	173066
#	196261
#	216161
#	237006
#	257459
#	271555
#	293087
#	309844
#	325706
#
# Disc length: 4577 seconds
#
# Revision: 1
# Processed by: cddbd v1.5.1PL0 Copyright (c) Steve Scherf et al.
# Submitted via: audiograbber 1.82.02
#
DISCID=ed11df12
DTITLE=Various Artist - Hip Hop Generation CD2
DYEAR=2005
DGENRE=Hip-Hop
TTITLE0=G Unit ft. 50 Cent - The Banks Workout
TTITLE1=2Pac, DMX and X-Zibit - Dolla Signs
TTITLE2=D12 ft. Lael and Kon Artis - Makin' Moves
TTITLE3=Dr. Dre - Gang Bang
TTITLE4=Kurupt - Whut Dew U Mean
TTITLE5=Ice Cube - Cabbage Patch
TTITLE6=Digital Underground - Your Life's A Cartoon
TTITLE7=Master P - Dope, Pussy And Money
TTITLE8=DJ Nasty Knock - Show Me The Money
TTITLE9=Tha Dogg Pound ft. Snoop Dogg - What Would U Do?
TTITLE10=Rhyme Syndicate - Sweet Juice
TTITLE11=The Arabian Prince and Sheiks - Situation Hot
TTITLE12=2 Live Crew - Electro Freestyler
TTITLE13=Prodigy ft. Infamous Mobb - Mobb N' Gaz
TTITLE14=Spyder D. - When You've Got A Mercedes
TTITLE15=Ice T - 6 N The Morning
TTITLE16=Dr. Dre ft. DJ Yella - Slice
TTITLE17=Mistress ft. DJ Madame - Hypergroove
EXTD=
EXTT0=
EXTT1=
EXTT2=
EXTT3=
EXTT4=
EXTT5=
EXTT6=
EXTT7=
EXTT8=
EXTT9=
EXTT10=
EXTT11=
EXTT12=
EXTT13=
EXTT14=
EXTT15=
EXTT16=
EXTT17=
PLAYORDER=
